<svg width="30" height="34" viewBox="0 0 30 34" fill="none" xmlns="http://www.w3.org/2000/svg">
<g clip-path="url(#clip0_19_568)">
<path d="M27.6078 0.49088H2.39232C1.82019 0.484294 1.26913 0.734707 0.860035 1.18717C0.450943 1.63964 0.217239 2.2572 0.210205 2.90435V31.5423C0.218511 32.1885 0.452774 32.8047 0.861728 33.2559C1.27068 33.7072 1.82102 33.9569 2.39232 33.9503H27.6078C28.18 33.9554 28.7307 33.7042 29.1396 33.2514C29.5484 32.7987 29.7823 32.1812 29.7899 31.5341V2.89612C29.7797 2.25087 29.5448 1.63625 29.1362 1.18586C28.7276 0.735475 28.1783 0.485718 27.6078 0.49088Z" fill="#FDFDFD"/>
<path d="M4.58888 13.0327H8.97978V29.0136H4.58888V13.0327ZM6.78554 5.07919C7.28916 5.07919 7.78146 5.24815 8.20017 5.5647C8.61887 5.88125 8.94517 6.33116 9.13779 6.85752C9.3304 7.38387 9.38067 7.96303 9.28225 8.52171C9.18382 9.08039 8.94111 9.5935 8.58484 9.99612C8.22856 10.3987 7.77471 10.6728 7.28072 10.7836C6.78672 10.8944 6.27477 10.837 5.80963 10.6186C5.34449 10.4002 4.94706 10.0307 4.66761 9.55678C4.38817 9.08285 4.23927 8.52582 4.23975 7.95615C4.24039 7.19288 4.50889 6.46112 4.98625 5.92167C5.46361 5.38221 6.11078 5.07919 6.78554 5.07919ZM11.7341 13.0327H15.9431V15.2267H16.0013C16.5881 13.9706 18.0186 12.646 20.1546 12.646C24.6013 12.635 25.4256 15.9453 25.4256 20.2374V29.0136H21.0347V21.2384C21.0347 19.3872 21.0056 17.0039 18.7532 17.0039C16.5008 17.0039 16.1177 19.0224 16.1177 21.1178V29.0136H11.7341V13.0327Z" fill="#1A1B1C"/>
</g>
<defs>
<clipPath id="clip0_19_568">
<rect width="30" height="33.75" fill="white" transform="translate(0 0.25)"/>
</clipPath>
</defs>
</svg>
